<svg xmlns="http://www.w3.org/2000/svg" version="1.1" xmlns:xlink="http://www.w3.org/1999/xlink" xmlns:svgjs="http://svgjs.com/svgjs" width="84.62" height="98.22"><svg xmlns="http://www.w3.org/2000/svg" viewBox="0 0 84.62 98.22"><path fill="#333333" d="M82.685 76.951L54.83 7.841l-.27-.4c-2.545-4.423-7.1-7.1-12.323-7.1s-9.77 2.684-12.316 7.1l-.131.269L1.928 76.95C-.218 81.906.32 87.53 3.135 91.821c2.546 3.885 6.693 6.024 11.247 6.024h55.98c4.554 0 8.57-2.008 11.116-5.762 2.684-4.147 3.215-9.908 1.207-15.132zM14.651 63.29l21.294-52.633c1.338-2.277 3.746-3.615 6.43-3.615s4.955 1.338 6.431 3.615l11.116 27.586C49.476 52.305 33.136 61.951 14.652 63.29z"></path></svg><style>@media (prefers-color-scheme: light) { :root { filter: none; } }
</style></svg>