<svg xmlns="http://www.w3.org/2000/svg" xmlns:xlink="http://www.w3.org/1999/xlink" zoomAndPan="magnify" preserveAspectRatio="xMidYMid meet" version="1.0" viewBox="79.87 358.52 650.31 145.39"><defs><g/><clipPath id="e0e4d268ee"><path d="M 561 366 L 654 366 L 654 474.734375 L 561 474.734375 Z M 561 366 " clip-rule="nonzero"/></clipPath></defs><g fill="#000000" fill-opacity="1"><g transform="translate(77.670897, 471.634164)"><g><path d="M 2.203125 0 L 39.640625 -113.109375 L 69.625 -113.109375 L 107.140625 0 L 83.53125 0 L 76 -22.96875 L 32.4375 -22.96875 L 25.09375 0 Z M 38.984375 -43.15625 L 69.46875 -43.15625 L 54.265625 -89.90625 Z M 38.984375 -43.15625 "/></g></g></g><g fill="#000000" fill-opacity="1"><g transform="translate(183.912854, 471.634164)"><g><path d="M 67.09375 0 L 67.09375 -47.234375 C 67.09375 -56.171875 66.289062 -62.132812 64.6875 -65.125 C 63.082031 -68.125 60.046875 -69.625 55.578125 -69.625 C 49.304688 -69.625 41.757812 -65.484375 32.9375 -57.203125 L 32.9375 0 L 11.84375 0 L 11.84375 -85.734375 L 32.9375 -85.734375 L 32.9375 -74.609375 C 37.40625 -79.078125 42.171875 -82.457031 47.234375 -84.75 C 52.304688 -87.039062 57.265625 -88.1875 62.109375 -88.1875 C 70.878906 -88.1875 77.414062 -85.785156 81.71875 -80.984375 C 86.03125 -76.191406 88.1875 -68.265625 88.1875 -57.203125 L 88.1875 0 Z M 67.09375 0 "/></g></g></g><g fill="#000000" fill-opacity="1"><g transform="translate(280.348859, 471.634164)"><g><path d="M 89.734375 -42.65625 C 89.734375 -28.382812 86.4375 -17.285156 79.84375 -9.359375 C 73.25 -1.429688 62.867188 2.53125 48.703125 2.53125 C 21.242188 2.53125 7.515625 -12.53125 7.515625 -42.65625 C 7.515625 -57.15625 10.8125 -68.367188 17.40625 -76.296875 C 24 -84.222656 34.429688 -88.1875 48.703125 -88.1875 C 62.867188 -88.1875 73.25 -84.222656 79.84375 -76.296875 C 86.4375 -68.367188 89.734375 -57.15625 89.734375 -42.65625 Z M 67.921875 -42.65625 C 67.921875 -52.082031 66.445312 -58.960938 63.5 -63.296875 C 60.5625 -67.628906 55.628906 -69.796875 48.703125 -69.796875 C 41.835938 -69.796875 36.878906 -67.570312 33.828125 -63.125 C 30.785156 -58.6875 29.265625 -51.863281 29.265625 -42.65625 C 29.265625 -33.507812 30.773438 -26.769531 33.796875 -22.4375 C 36.816406 -18.101562 41.785156 -15.9375 48.703125 -15.9375 C 55.515625 -15.9375 60.421875 -18.070312 63.421875 -22.34375 C 66.421875 -26.625 67.921875 -33.394531 67.921875 -42.65625 Z M 67.921875 -42.65625 "/></g></g></g><g fill="#000000" fill-opacity="1"><g transform="translate(374.578525, 471.634164)"><g><path d="M 67.09375 0 L 67.09375 -47.234375 C 67.09375 -56.171875 66.289062 -62.132812 64.6875 -65.125 C 63.082031 -68.125 60.046875 -69.625 55.578125 -69.625 C 49.304688 -69.625 41.757812 -65.484375 32.9375 -57.203125 L 32.9375 0 L 11.84375 0 L 11.84375 -85.734375 L 32.9375 -85.734375 L 32.9375 -74.609375 C 37.40625 -79.078125 42.171875 -82.457031 47.234375 -84.75 C 52.304688 -87.039062 57.265625 -88.1875 62.109375 -88.1875 C 70.878906 -88.1875 77.414062 -85.785156 81.71875 -80.984375 C 86.03125 -76.191406 88.1875 -68.265625 88.1875 -57.203125 L 88.1875 0 Z M 67.09375 0 "/></g></g></g><g fill="#000000" fill-opacity="1"><g transform="translate(471.014537, 471.634164)"><g><path d="M 94.890625 -75.1875 C 94.890625 -61.5625 91.6875 -51.453125 85.28125 -44.859375 C 78.875 -38.273438 68.484375 -34.984375 54.109375 -34.984375 L 35.3125 -34.984375 L 35.3125 0 L 12.265625 0 L 12.265625 -113.109375 L 54.75 -113.109375 C 67.5625 -113.109375 77.453125 -110.125 84.421875 -104.15625 C 91.398438 -98.1875 94.890625 -88.53125 94.890625 -75.1875 Z M 71.109375 -75.03125 C 71.109375 -81.40625 69.347656 -86.007812 65.828125 -88.84375 C 62.316406 -91.675781 55.984375 -93.09375 46.828125 -93.09375 L 35.3125 -93.09375 L 35.3125 -55.078125 L 44.703125 -55.078125 C 53.148438 -55.078125 58.992188 -55.660156 62.234375 -56.828125 C 65.472656 -58.003906 67.757812 -59.984375 69.09375 -62.765625 C 70.4375 -65.546875 71.109375 -69.632812 71.109375 -75.03125 Z M 71.109375 -75.03125 "/></g></g></g><g fill="#000000" fill-opacity="1"><g transform="translate(569.248622, 471.634164)"><g/></g></g><g fill="#000000" fill-opacity="1"><g transform="translate(606.440322, 471.634164)"><g/></g></g><g fill="#000000" fill-opacity="1"><g transform="translate(643.638645, 471.634164)"><g><path d="M 2.859375 11.515625 C 7.429688 13.097656 11.546875 13.890625 15.203125 13.890625 C 18.359375 13.890625 21.132812 12.9375 23.53125 11.03125 C 25.9375 9.125 28.414062 5.175781 30.96875 -0.8125 L 33.1875 -5.890625 L 2.203125 -85.734375 L 24.109375 -85.734375 L 44.375 -30.96875 L 65.140625 -85.734375 L 86.546875 -85.734375 L 49.6875 5.890625 C 46.6875 13.242188 43.769531 18.691406 40.9375 22.234375 C 38.101562 25.773438 34.789062 28.332031 31 29.90625 C 27.21875 31.488281 22.46875 32.28125 16.75 32.28125 C 10.539062 32.28125 4.410156 31.460938 -1.640625 29.828125 Z M 2.859375 11.515625 "/></g></g></g><g clip-path="url(#e0e4d268ee)"><path fill="#000000" d="M 652.410156 451.238281 L 621.550781 374.667969 L 621.25 374.226562 C 618.429688 369.328125 613.386719 366.359375 607.597656 366.359375 C 601.8125 366.359375 596.773438 369.335938 593.953125 374.226562 L 593.808594 374.523438 L 562.9375 451.238281 C 560.5625 456.726562 561.15625 462.960938 564.277344 467.714844 C 567.097656 472.015625 571.691406 474.386719 576.738281 474.386719 L 638.757812 474.386719 C 643.804688 474.386719 648.253906 472.164062 651.074219 468.003906 C 654.046875 463.410156 654.636719 457.027344 652.410156 451.238281 Z M 577.035156 436.101562 L 600.628906 377.789062 C 602.109375 375.265625 604.777344 373.785156 607.75 373.785156 C 610.726562 373.785156 613.242188 375.265625 614.875 377.789062 L 627.191406 408.351562 C 615.617188 423.933594 597.515625 434.621094 577.035156 436.101562 Z M 577.035156 436.101562 " fill-opacity="1" fill-rule="nonzero"/></g></svg>